<svg xmlns="http://www.w3.org/2000/svg" width="346.219" height="69" viewBox="0 0 346.219 69">
  <defs>
    <style>
      .cls-1 {
        fill: #fff;
        fill-rule: evenodd;
      }
    </style>
  </defs>
  <path id="logo.svg" class="cls-1" d="M721.219,65.688h-2.694l-7.492-6.7v6.7h-1.914V45.071h1.914V56.816l6.9-6h2.81l-8.176,7.1Zm-19.2-.5a6.823,6.823,0,0,1-3.616.882,6.9,6.9,0,0,1-3.63-.882,5.446,5.446,0,0,1-2.174-2.461,12.032,12.032,0,0,1-.717-4.751V50.813H693.8v6.945a14.8,14.8,0,0,0,.274,3.5,3.9,3.9,0,0,0,1.567,2.16,4.762,4.762,0,0,0,2.759.793,4.657,4.657,0,0,0,2.718-.773,3.952,3.952,0,0,0,1.541-2.03,14.381,14.381,0,0,0,.287-3.65V50.813H704.9v7.3a11.559,11.559,0,0,1-.717,4.635A5.484,5.484,0,0,1,702.024,65.189Zm-15.786.882a1.608,1.608,0,0,1-1.189-.5,1.709,1.709,0,0,1,0-2.4,1.683,1.683,0,0,1,2.379,0,1.709,1.709,0,0,1,0,2.4A1.61,1.61,0,0,1,686.238,66.071Zm-13.064,0a7.3,7.3,0,0,1-5.6-2.331,7.968,7.968,0,0,1-.116-10.808,7.767,7.767,0,0,1,11.408-.014,7.986,7.986,0,0,1-.116,10.821A7.284,7.284,0,0,1,673.174,66.071Zm4.088-12a5.644,5.644,0,0,0-8.2,0,5.892,5.892,0,0,0-1.715,4.266,6.042,6.042,0,0,0,.782,3.008,5.533,5.533,0,0,0,2.113,2.153,6.005,6.005,0,0,0,5.844,0,5.533,5.533,0,0,0,2.113-2.153,6.042,6.042,0,0,0,.782-3.008A5.882,5.882,0,0,0,677.262,54.067ZM652.47,63.515a6.856,6.856,0,0,0,8.583-1.819l1.517,1a7.169,7.169,0,0,1-2.864,2.492,9.15,9.15,0,0,1-4.1.885,8.087,8.087,0,0,1-5.851-2.242,7.292,7.292,0,0,1-2.324-5.455,7.8,7.8,0,0,1,1.086-4.013,7.663,7.663,0,0,1,2.988-2.892,8.716,8.716,0,0,1,4.252-1.039,9.076,9.076,0,0,1,2.85.451,7.929,7.929,0,0,1,2.331,1.176A6.389,6.389,0,0,1,662.57,53.9l-1.517.943a6.357,6.357,0,0,0-5.367-2.611,6.208,6.208,0,0,0-4.513,1.748,5.706,5.706,0,0,0-1.8,4.247,6.027,6.027,0,0,0,.826,3.059A5.8,5.8,0,0,0,652.47,63.515Zm-10.232,2.556a1.608,1.608,0,0,1-1.189-.5,1.709,1.709,0,0,1,0-2.4,1.683,1.683,0,0,1,2.379,0,1.709,1.709,0,0,1,0,2.4A1.61,1.61,0,0,1,642.238,66.071Zm-8.045-7.478a17.482,17.482,0,0,0-.213-3.432,3.765,3.765,0,0,0-1.276-2.222,3.854,3.854,0,0,0-2.461-.745,4.72,4.72,0,0,0-3.111,1.148,5.384,5.384,0,0,0-1.812,2.844,19.81,19.81,0,0,0-.273,4.047v5.455h-1.914V50.813h1.914v2.666a8,8,0,0,1,2.543-2.29,6.249,6.249,0,0,1,3.035-.759,5.274,5.274,0,0,1,2.96.848,5.051,5.051,0,0,1,1.907,2.283,12.078,12.078,0,0,1,.615,4.471v7.656h-1.914v-7.1Zm-22.019,7.478a7.3,7.3,0,0,1-5.6-2.331,7.968,7.968,0,0,1-.116-10.808,7.767,7.767,0,0,1,11.408-.014,7.986,7.986,0,0,1-.116,10.821A7.284,7.284,0,0,1,612.174,66.071Zm4.088-12a5.644,5.644,0,0,0-8.2,0,5.892,5.892,0,0,0-1.715,4.266,6.042,6.042,0,0,0,.782,3.008,5.533,5.533,0,0,0,2.113,2.153,6.005,6.005,0,0,0,5.844,0,5.533,5.533,0,0,0,2.113-2.153,6.042,6.042,0,0,0,.782-3.008A5.882,5.882,0,0,0,616.262,54.067ZM599.8,47.846a1.584,1.584,0,0,1-1.566-1.572,1.534,1.534,0,0,1,.463-1.121,1.557,1.557,0,0,1,2.219,0,1.53,1.53,0,0,1,.463,1.121A1.584,1.584,0,0,1,599.8,47.846Zm-6.081,17.842H591.8V52.468h-2.612V50.813H591.8V45.29h1.914v5.523h3.035v1.654h-3.035V65.688ZM576.47,63.515a6.856,6.856,0,0,0,8.583-1.819l1.517,1a7.169,7.169,0,0,1-2.864,2.492,9.15,9.15,0,0,1-4.1.885,8.087,8.087,0,0,1-5.851-2.242,7.292,7.292,0,0,1-2.324-5.455,7.8,7.8,0,0,1,1.086-4.013,7.663,7.663,0,0,1,2.988-2.892,8.716,8.716,0,0,1,4.252-1.039,9.076,9.076,0,0,1,2.85.451,7.929,7.929,0,0,1,2.331,1.176A6.389,6.389,0,0,1,586.57,53.9l-1.517.943a6.357,6.357,0,0,0-5.367-2.611,6.208,6.208,0,0,0-4.513,1.748,5.706,5.706,0,0,0-1.8,4.247,6.027,6.027,0,0,0,.826,3.059A5.8,5.8,0,0,0,576.47,63.515Zm-19.437-.865a5.284,5.284,0,0,0,3.956,1.657,6.359,6.359,0,0,0,2.211-.395,5.814,5.814,0,0,0,1.827-1.049,8.922,8.922,0,0,0,1.629-2.111L568.27,61.6a8.822,8.822,0,0,1-1.834,2.516,7.294,7.294,0,0,1-2.34,1.456,8.165,8.165,0,0,1-2.942.5,7.109,7.109,0,0,1-5.693-2.386,8.046,8.046,0,0,1-2.053-5.394,7.951,7.951,0,0,1,1.738-5.045,7.106,7.106,0,0,1,5.9-2.816,7.34,7.34,0,0,1,6.076,2.885,8.062,8.062,0,0,1,1.642,5.086H555.377A6.053,6.053,0,0,0,557.033,62.65Zm9.623-5.9A6.332,6.332,0,0,0,565.54,54.3a5.276,5.276,0,0,0-1.936-1.477,5.94,5.94,0,0,0-2.533-.56,5.453,5.453,0,0,0-3.764,1.408,6.366,6.366,0,0,0-1.739,3.076h11.088Zm-18.81-11.676h1.914V65.688h-1.914V45.071Zm-6,0h1.914V65.688h-1.914V45.071Zm-10.672,21a7.3,7.3,0,0,1-5.6-2.331,7.968,7.968,0,0,1-.116-10.808,7.767,7.767,0,0,1,11.408-.014,7.986,7.986,0,0,1-.116,10.821A7.284,7.284,0,0,1,531.174,66.071Zm4.088-12a5.644,5.644,0,0,0-8.2,0,5.892,5.892,0,0,0-1.715,4.266,6.042,6.042,0,0,0,.782,3.008,5.533,5.533,0,0,0,2.113,2.153,6.005,6.005,0,0,0,5.844,0,5.533,5.533,0,0,0,2.113-2.153,6.042,6.042,0,0,0,.782-3.008A5.882,5.882,0,0,0,535.262,54.067ZM510.47,63.515a6.856,6.856,0,0,0,8.583-1.819l1.517,1a7.169,7.169,0,0,1-2.864,2.492,9.15,9.15,0,0,1-4.1.885,8.087,8.087,0,0,1-5.851-2.242,7.292,7.292,0,0,1-2.324-5.455,7.8,7.8,0,0,1,1.086-4.013,7.663,7.663,0,0,1,2.988-2.892,8.716,8.716,0,0,1,4.252-1.039,9.076,9.076,0,0,1,2.85.451,7.929,7.929,0,0,1,2.331,1.176A6.389,6.389,0,0,1,520.57,53.9l-1.517.943a6.357,6.357,0,0,0-5.367-2.611,6.208,6.208,0,0,0-4.513,1.748,5.706,5.706,0,0,0-1.8,4.247,6.027,6.027,0,0,0,.826,3.059A5.8,5.8,0,0,0,510.47,63.515Zm-11.5-6.29a8.6,8.6,0,0,1,2.905,2.133,3.888,3.888,0,0,1,.753,2.338,4.2,4.2,0,0,1-1.287,3.1,4.395,4.395,0,0,1-3.218,1.272,5.627,5.627,0,0,1-2.458-.561,5.337,5.337,0,0,1-1.937-1.545l1.2-1.367a4.182,4.182,0,0,0,3.111,1.654A2.8,2.8,0,0,0,500,63.514a2.281,2.281,0,0,0,.809-1.736,2.227,2.227,0,0,0-.535-1.463,8.594,8.594,0,0,0-2.411-1.586,7.719,7.719,0,0,1-2.74-2.051,3.863,3.863,0,0,1-.726-2.311,3.756,3.756,0,0,1,1.157-2.816,4.031,4.031,0,0,1,2.924-1.121,6.058,6.058,0,0,1,4.135,2.01l-1.23,1.271a4.423,4.423,0,0,0-3-1.49,2.267,2.267,0,0,0-1.6.615,1.9,1.9,0,0,0-.665,1.436,2.128,2.128,0,0,0,.548,1.381A7.7,7.7,0,0,0,498.967,57.225Zm-9.559.342a10.582,10.582,0,0,0-.341-3.288,2.959,2.959,0,0,0-1.165-1.442,3.48,3.48,0,0,0-1.969-.547,4.284,4.284,0,0,0-2.541.82,4.717,4.717,0,0,0-1.683,2.188,13.875,13.875,0,0,0-.531,4.566v5.824h-1.914V58.073a13.078,13.078,0,0,0-.335-3.657,3.067,3.067,0,0,0-1.169-1.545,3.382,3.382,0,0,0-1.983-.581,4.276,4.276,0,0,0-2.481.8,4.736,4.736,0,0,0-1.709,2.153,11.61,11.61,0,0,0-.554,4.143v6.3h-1.914V50.813h1.914v2.57a7.419,7.419,0,0,1,2.053-2.078,5.826,5.826,0,0,1,3.053-.875,5.083,5.083,0,0,1,2.053.424,4.419,4.419,0,0,1,1.588,1.128A6.06,6.06,0,0,1,480.847,54a7.069,7.069,0,0,1,2.387-2.659,5.648,5.648,0,0,1,3.083-.909,4.826,4.826,0,0,1,2.721.779,4.649,4.649,0,0,1,1.752,2.174,11.6,11.6,0,0,1,.573,4.184v8.121h-1.955V57.567Zm-26.342,5.564a8.2,8.2,0,0,1-2.7,2.2,7.543,7.543,0,0,1-8.668-1.552,7.679,7.679,0,0,1-2.235-5.571,7.538,7.538,0,0,1,2.256-5.5,7.355,7.355,0,0,1,5.427-2.283,7.02,7.02,0,0,1,3.316.779,7.541,7.541,0,0,1,2.6,2.338V50.813h1.887V65.688h-1.887V63.132Zm-1.577-9.121a5.63,5.63,0,0,0-4.185-1.734,5.772,5.772,0,0,0-5.1,2.991,6.025,6.025,0,0,0,.007,6.009,5.87,5.87,0,0,0,2.164,2.233,5.656,5.656,0,0,0,2.916.8,5.976,5.976,0,0,0,2.977-.792,5.544,5.544,0,0,0,2.165-2.144,6.122,6.122,0,0,0,.757-3.045A5.918,5.918,0,0,0,461.489,54.011ZM446.218,65.688l-4.528-6.247-4.5,6.247H434.9l5.636-7.834-5.1-7.041h2.3l3.957,5.442,3.914-5.442h2.3l-5.063,7.027,5.706,7.848h-2.331ZM422.033,62.65a5.284,5.284,0,0,0,3.956,1.657,6.359,6.359,0,0,0,2.211-.395,5.814,5.814,0,0,0,1.827-1.049,8.922,8.922,0,0,0,1.629-2.111L433.27,61.6a8.822,8.822,0,0,1-1.834,2.516,7.294,7.294,0,0,1-2.34,1.456,8.165,8.165,0,0,1-2.942.5,7.109,7.109,0,0,1-5.693-2.386,8.046,8.046,0,0,1-2.053-5.394,7.951,7.951,0,0,1,1.738-5.045,7.106,7.106,0,0,1,5.9-2.816,7.34,7.34,0,0,1,6.076,2.885,8.062,8.062,0,0,1,1.642,5.086H420.377A6.053,6.053,0,0,0,422.033,62.65Zm9.623-5.9A6.332,6.332,0,0,0,430.54,54.3a5.276,5.276,0,0,0-1.936-1.477,5.94,5.94,0,0,0-2.533-.56,5.453,5.453,0,0,0-3.764,1.408,6.366,6.366,0,0,0-1.739,3.076h11.088ZM419.9,68.834L395.7,79.491l-0.812-1.836L419.083,67ZM385.838,57.2l24.2-10.658,0.812,1.836-24.2,10.658Zm29.533,1.407-24.2,10.658-0.812-1.836,24.2-10.658ZM407.859,27.68L383.051,38.637l4.106,9.281a1,1,0,0,1-.514,1.323l-9.229,4.064,16.83,38.048,35.1-15.462L426,68h2l4,8.918L393.216,94,375.325,53.555l0,0a1,1,0,0,1-.3-0.686L375,52.821l0.014-.037a0.972,0.972,0,0,1,.063-0.321l5.708-14.7,0.15-.392L409.2,25s5.738,13.113,10.918,24.96L418,50.465C412.987,39.286,407.859,27.68,407.859,27.68ZM377.892,50.9l7.019-3.091-3.121-7.053ZM600.76,65.688h-1.914V50.813h1.914V65.688Z" transform="translate(-375 -25)"/>
</svg>
