<?xml version="1.0" encoding="utf-8"?>
<!-- Generator: Adobe Illustrator 15.0.0, SVG Export Plug-In . SVG Version: 6.00 Build 0)  -->
<!DOCTYPE svg PUBLIC "-//W3C//DTD SVG 1.1//EN" "http://www.w3.org/Graphics/SVG/1.1/DTD/svg11.dtd">
<svg version="1.1" id="Layer_1" xmlns="http://www.w3.org/2000/svg" xmlns:xlink="http://www.w3.org/1999/xlink" x="0px" y="0px"
	 width="555px" height="290px" viewBox="0 0 555 290" enable-background="new 0 0 555 290" xml:space="preserve">
<g opacity="0.4">
	<g>
		<defs>
			<rect id="SVGID_1_" x="44.096" y="250" width="130.022" height="38"/>
		</defs>
		<clipPath id="SVGID_2_">
			<use xlink:href="#SVGID_1_"  overflow="visible"/>
		</clipPath>
		<path clip-path="url(#SVGID_2_)" fill="#92D6CD" d="M174.118,269c0,10.493-29.106,19-65.011,19c-35.905,0-65.01-8.507-65.01-19
			s29.105-19,65.01-19C145.012,250,174.118,258.507,174.118,269"/>
	</g>
</g>
<path fill="#323945" d="M250.689,193.34c6.77-4.001,2.154-18.771-11.563-14.797c-11.543,3.345-25.402,9.2-25.402,9.2
	c-9.663-22.262-14.479-33.481-22.224-34.614V192.5c0,3.69-0.267,7.193-0.737,10.551c7.681,16.57,19.995,15.009,31.321,13.49
	c12.266-1.644,23.842-8.198,28.913-10.585C261.46,201.033,254.689,191.801,250.689,193.34"/>
<path fill="#323945" d="M26.5,144.39c-1.944,0.476-4.624,2.531-7.548,8.868c-5.829,12.626-14.57,44.68-17.97,56.336
	c-3.399,11.654,4.857,17.482,13.599,13.598c0,0,11.648,6.978,15.774-7.354c-2.498-6.873-3.855-14.635-3.855-23.338V144.39z"/>
<path fill="#FFA81F" d="M60.253,265.868c0,0,3.721,12.225,16.783,7.859c0,0,7.751,13.448,18.214,3.192
	c3.835-3.759,7.149-11.496,7.048-19.082c-17.041-0.76-32.617-4.462-45.159-11.432C46.092,255.857,48.068,265.652,60.253,265.868"/>
<path fill="#FFA81F" d="M122.964,276.92c10.463,10.256,18.213-3.192,18.213-3.192c13.062,4.365,16.784-7.859,16.784-7.859
	c12.215-0.216,14.17-10.059,3.031-19.532c-12.512,6.987-28.06,10.709-45.076,11.493C115.812,265.418,119.127,273.159,122.964,276.92
	"/>
<path fill="#434C5C" d="M191.5,153.129V104.5c0-45.563-36.937-82.5-82.5-82.5s-82.5,36.938-82.5,82.5v39.89v48.11
	c0,8.704,1.357,16.465,3.855,23.338c4.939,13.589,14.376,23.674,26.784,30.568c12.542,6.97,28.119,10.672,45.159,11.432
	c2.213,0.1,4.443,0.162,6.702,0.162c2.332,0,4.633-0.066,6.916-0.171c17.016-0.784,32.563-4.506,45.076-11.493
	c15.953-8.908,26.952-23.124,29.772-43.285c0.469-3.356,0.736-6.86,0.736-10.551V153.129z M174.5,184.167
	c0,36.19-29.373,56.551-65.5,56.82c-36.127-0.27-65.5-20.63-65.5-56.82v-70.334c0-21.044,2.339-38.707,20.811-51.166
	C78.644,53,105.122,55,109.122,76.545c4-21.545,30.349-23.545,44.682-13.878c18.471,12.459,20.696,30.122,20.696,51.166V184.167z"/>
<path fill="#FFFFFF" d="M153.804,62.666C139.471,53,113.122,55,109.122,76.545C105.122,55,78.644,53,64.311,62.666
	C45.838,75.126,43.5,92.789,43.5,113.832v70.334c0,36.191,29.373,56.552,65.5,56.821c36.128-0.27,65.5-20.63,65.5-56.821v-70.334
	C174.5,92.789,172.275,75.126,153.804,62.666 M127.644,125.312c-6.441,13.933-15.864,19.248-19.037,19.248
	c-3.172,0-12.595-5.315-19.036-19.248c-3.302-7.141,10.47-13.538,19.036-13.538C117.174,111.773,130.944,118.171,127.644,125.312"/>
<path fill="#FFA81F" d="M108.607,111.773c-8.566,0-22.338,6.396-19.037,13.538c6.442,13.933,15.864,19.248,19.037,19.248
	s12.595-5.315,19.037-19.248C130.945,118.17,117.173,111.773,108.607,111.773"/>
<path fill="#DBDBDB" d="M319.602,204.682c-14.189-1.441-28.981-2.153-44.275-1.326c-54.591,2.95-77.869,29.755-59.8,52.293
	c9.492-11.275,29.962-20.017,59.8-21.629"/>
<path fill="#DBDBDB" d="M275.326,234.02c54.678-2.956,102.948,13.757,140.179,13.142c34.188-0.564,78.752-3.9,94.183-1.096
	c16.493,2.999,28.409,8.054,35.844,13.935c19.682-13.997,8.147-36.6-35.844-44.599c-15.431-2.805-59.995,0.531-94.183,1.096
	c-26.817,0.443-59.362-8.104-95.903-11.815"/>
<path fill="#59A4AE" d="M272.041,282.206c95.172,18.57,152.386-17.073,197.125-12.047c38.146,4.286,63.709-1.157,76.365-10.159
	c-7.435-5.881-19.351-10.936-35.844-13.935c-15.431-2.805-59.995,0.531-94.183,1.096c-37.23,0.615-85.501-16.098-140.179-13.142
	c-29.839,1.612-50.308,10.354-59.801,21.629C224.277,266.567,242.731,276.487,272.041,282.206"/>
<line fill="none" stroke="#434C5C" stroke-width="4" stroke-linecap="round" stroke-miterlimit="10" x1="351.771" y1="9.604" x2="358.319" y2="140.391"/>
<line fill="none" stroke="#FF8543" stroke-width="9" stroke-linecap="round" stroke-miterlimit="10" x1="209.495" y1="230" x2="352.806" y2="8"/>
<path fill="#92D6CD" d="M467.888,209.754c1.3,5.344-2.009,10.78-7.354,12.08l-145.751,35.444c-5.345,1.3-10.78-2.009-12.081-7.354
	l-19.612-80.649c-1.3-5.344,2.009-10.78,7.354-12.08l145.753-35.445c5.344-1.3,10.78,2.01,12.08,7.354L467.888,209.754z"/>
<g>
	<path fill="#FFFFFF" d="M328.366,182.572l-11.455,2.785l2.584,10.625l12.768-3.105l0.775,3.193l-16.571,4.029l-7.167-29.47
		l15.915-3.87l0.776,3.191l-12.111,2.945l2.266,9.313l11.455-2.786L328.366,182.572z"/>
	<path fill="#FFFFFF" d="M330.908,165.792c1.828-0.861,4.529-1.749,7.153-2.388c4.066-0.988,6.87-0.885,9.111,0.331
		c1.806,0.95,3.125,2.76,3.678,5.033c0.946,3.892-0.875,7.067-3.724,8.871l0.031,0.131c2.465,0.233,4.331,2.003,5.775,4.894
		c1.962,3.877,3.352,6.549,4.24,7.536l-3.936,0.957c-0.683-0.714-1.955-3.091-3.679-6.562c-1.863-3.854-3.81-5.001-7.296-4.291
		l-3.585,0.871l3.104,12.768l-3.804,0.925L330.908,165.792z M337.977,178.29l3.892-0.946c4.066-0.988,6.104-3.846,5.285-7.213
		c-0.925-3.805-4.083-4.796-8.117-3.861c-1.837,0.447-3.105,0.939-3.675,1.265L337.977,178.29z"/>
	<path fill="#FFFFFF" d="M354.433,160.07c1.828-0.861,4.529-1.748,7.153-2.387c4.066-0.988,6.87-0.885,9.11,0.33
		c1.807,0.951,3.126,2.76,3.679,5.033c0.946,3.893-0.875,7.068-3.724,8.872l0.031,0.131c2.466,0.233,4.331,2.003,5.775,4.894
		c1.962,3.877,3.352,6.549,4.24,7.536l-3.936,0.956c-0.683-0.713-1.955-3.09-3.679-6.561c-1.863-3.854-3.81-5.001-7.296-4.292
		l-3.585,0.872l3.104,12.768l-3.804,0.924L354.433,160.07z M361.501,172.569l3.892-0.946c4.066-0.988,6.104-3.846,5.285-7.213
		c-0.925-3.805-4.084-4.797-8.117-3.861c-1.837,0.447-3.105,0.939-3.675,1.265L361.501,172.569z"/>
	<path fill="#FFFFFF" d="M406.555,162.262c2.467,10.143-2.391,17.021-9.911,18.85c-7.782,1.893-14.716-2.813-16.885-11.732
		c-2.275-9.356,2.051-16.893,9.921-18.807C397.726,148.616,404.428,153.518,406.555,162.262z M383.804,168.303
		c1.531,6.297,6.313,11.107,12.304,9.65c6.034-1.467,8.094-7.85,6.467-14.539c-1.425-5.858-5.974-11.236-12.313-9.693
		C383.964,155.252,382.229,161.832,383.804,168.303z"/>
	<path fill="#FFFFFF" d="M408.083,147.023c1.828-0.861,4.529-1.749,7.153-2.387c4.065-0.989,6.87-0.885,9.11,0.33
		c1.806,0.951,3.126,2.76,3.679,5.033c0.946,3.893-0.875,7.067-3.725,8.872l0.032,0.131c2.465,0.233,4.331,2.003,5.775,4.894
		c1.961,3.877,3.352,6.548,4.24,7.535l-3.936,0.957c-0.683-0.713-1.955-3.09-3.679-6.561c-1.863-3.854-3.81-5.001-7.296-4.292
		l-3.585,0.872l3.104,12.768l-3.804,0.924L408.083,147.023z M415.151,159.521l3.892-0.945c4.066-0.989,6.104-3.847,5.285-7.213
		c-0.925-3.805-4.084-4.797-8.118-3.861c-1.836,0.447-3.104,0.939-3.674,1.264L415.151,159.521z"/>
</g>
<g>
	<path fill="#FFFFFF" d="M363.955,230.745l-1.882-7.739l-13.205,3.211l-0.616-2.535l8.268-21.229l4.153-1.011l4.296,17.665
		l3.979-0.968l0.733,3.017l-3.979,0.967l1.882,7.74L363.955,230.745z M361.34,219.989l-2.308-9.487
		c-0.361-1.487-0.679-2.984-0.953-4.492l-0.131,0.032c-0.472,1.874-0.873,3.269-1.341,4.771l-4.603,11.355l0.021,0.086
		L361.34,219.989z"/>
	<path fill="#FFFFFF" d="M389.851,209.073c2.351,9.663,0.063,15.87-6.233,17.4c-5.553,1.351-10.579-2.938-12.952-12.317
		c-2.318-9.532,0.516-15.778,6.287-17.182C382.942,195.518,387.649,200.022,389.851,209.073z M374.523,213.264
		c1.797,7.39,5.091,11.035,8.589,10.184c3.936-0.957,4.698-6.006,2.934-13.264c-1.701-6.995-4.61-11.15-8.589-10.183
		C374.09,200.82,372.642,205.525,374.523,213.264z"/>
	<path fill="#FFFFFF" d="M408.816,219.836l-1.882-7.739l-13.205,3.211l-0.616-2.535l8.268-21.229l4.153-1.01l4.296,17.664
		l3.979-0.968l0.733,3.017l-3.979,0.968l1.882,7.739L408.816,219.836z M406.201,209.08l-2.308-9.488
		c-0.361-1.486-0.679-2.983-0.953-4.492l-0.131,0.032c-0.471,1.874-0.873,3.269-1.341,4.771l-4.603,11.355l0.021,0.087
		L406.201,209.08z"/>
</g>
<path fill="#434C5C" d="M83.794,99c0,3.141-2.546,5.688-5.687,5.688c-3.142,0-5.688-2.547-5.688-5.688s2.546-5.687,5.688-5.687
	C81.249,93.313,83.794,95.859,83.794,99"/>
<path fill="#434C5C" d="M145.794,99c0,3.141-2.546,5.688-5.687,5.688c-3.142,0-5.688-2.547-5.688-5.688s2.546-5.687,5.688-5.687
	C143.249,93.313,145.794,95.859,145.794,99"/>
</svg>
