<svg xmlns="http://www.w3.org/2000/svg" width="187.469" height="58.72" viewBox="0 0 187.469 58.72">
  <defs>
    <style>
      .cls-1 {
        fill: #fff;
        fill-rule: evenodd;
      }
    </style>
  </defs>
  <path id="logo.svg" class="cls-1" d="M562.472,1551.73a3.986,3.986,0,0,1,.1,1.93l2.765,4.72-7.241,2.81-0.448-5.72a3.568,3.568,0,0,1-.92-1.51,3.648,3.648,0,0,1,1.188-3.96l-3.557-11.48-9.977,9.42,2,5.28a27.887,27.887,0,0,0-9.479.56v20.08H537l10.914-11.64h4.077l-11.719,12.08,12.646,12.92H548.5L537,1575.03h-0.1v12.19H533.78v-32.74c-1.605.39-3.194,0.84-4.7,1.31-1.456.48-3.113,0.98-4.848,1.65-1.673.65-3.247,1.41-4.724,2.06a62.754,62.754,0,0,0-8.144,4.53v12.3c0,2.99.533,5.21,1.6,6.64a5.712,5.712,0,0,0,4.895,2.15,6.745,6.745,0,0,0,5.237-2.38,8.29,8.29,0,0,0,1.5-2.73,10.872,10.872,0,0,0,.537-3.51v-14.28h3.125v25h-3.125v-4.25h-0.1a8.354,8.354,0,0,1-7.886,4.83q-8.911,0-8.911-10.89v-10.56a22.248,22.248,0,0,0-2.906,2.85l-2.127-5.62-23.682-.56,35.93-33.92,47.042,1.73-6.9,6.52,3.749,12.1A3.052,3.052,0,0,1,562.472,1551.73Zm-83.649,22.7a1.065,1.065,0,0,1-.289.19,1.012,1.012,0,0,1-.356.07,0.874,0.874,0,0,1-.625-0.26,0.848,0.848,0,0,1-.264-0.64,0.811,0.811,0,0,1,.264-0.63,0.864,0.864,0,0,1,.625-0.25,1.029,1.029,0,0,1,.352.06,1.214,1.214,0,0,1,.288.18,0.9,0.9,0,0,1,.195.28,0.874,0.874,0,0,1,.073.36,0.928,0.928,0,0,1-.068.35A0.852,0.852,0,0,1,478.823,1574.43Zm-4.37,12.99q-2.421,0-2.421-2.79v-6.32h-1.758v-1.09h1.758v-2.52l1.25-.41v2.93h2.578v1.09h-2.578v6.12a2.516,2.516,0,0,0,.332,1.47,1.3,1.3,0,0,0,1.123.45,2.055,2.055,0,0,0,1.123-.35v1.1A3.166,3.166,0,0,1,474.453,1587.42Zm-7.574-9.35a3.639,3.639,0,0,0-1.582.33,3.448,3.448,0,0,0-1.167.92,4.12,4.12,0,0,0-.722,1.36,5.3,5.3,0,0,0-.25,1.64,5.561,5.561,0,0,0,.21,1.54,3.725,3.725,0,0,0,.645,1.29,3.063,3.063,0,0,0,1.1.89,3.341,3.341,0,0,0,1.562.34,4.157,4.157,0,0,0,2.539-.84v1.23a5.2,5.2,0,0,1-2.7.69,4.627,4.627,0,0,1-1.934-.37,4.223,4.223,0,0,1-1.465-1.06,4.737,4.737,0,0,1-.927-1.6,6.1,6.1,0,0,1-.323-2.01,6.4,6.4,0,0,1,.342-2.11,5.059,5.059,0,0,1,1-1.73,4.785,4.785,0,0,1,1.6-1.17,5.631,5.631,0,0,1,4.433.05v1.33A4.216,4.216,0,0,0,466.879,1578.07Zm-13.476,6.02a3.488,3.488,0,0,0,.673,1.24,2.9,2.9,0,0,0,1.07.78,3.572,3.572,0,0,0,1.421.27,5.083,5.083,0,0,0,3.193-1.19v1.24a5.847,5.847,0,0,1-3.477,1.02,4.669,4.669,0,0,1-1.826-.35,3.915,3.915,0,0,1-1.4-1.02,4.728,4.728,0,0,1-.889-1.65,7.277,7.277,0,0,1-.312-2.22,6.1,6.1,0,0,1,.341-2.08,5.178,5.178,0,0,1,.948-1.66,4.377,4.377,0,0,1,1.435-1.09,4.086,4.086,0,0,1,1.817-.4,4.015,4.015,0,0,1,1.709.34,3.28,3.28,0,0,1,1.245.96,4.438,4.438,0,0,1,.766,1.52,7.154,7.154,0,0,1,.264,2.02v0.62h-7.227A5.608,5.608,0,0,0,453.4,1584.09Zm5.693-2.74a3.805,3.805,0,0,0-.742-2.42,2.416,2.416,0,0,0-1.983-.86,3.032,3.032,0,0,0-1.176.22,2.855,2.855,0,0,0-.953.65,3.455,3.455,0,0,0-.678,1.04,5.065,5.065,0,0,0-.376,1.37H459.1Zm-10.533-8.94h1.25v14.81h-1.25v-14.81Zm-4,0h1.25v14.81h-1.25v-14.81ZM441.209,1586a4.22,4.22,0,0,1-1.523,1.07,5.23,5.23,0,0,1-2.031.38,5.064,5.064,0,0,1-2-.37,4.323,4.323,0,0,1-1.509-1.05,4.537,4.537,0,0,1-.957-1.63,6.285,6.285,0,0,1-.332-2.1,6.631,6.631,0,0,1,.351-2.23,4.726,4.726,0,0,1,1-1.68,4.256,4.256,0,0,1,1.568-1.05,5.568,5.568,0,0,1,2.05-.36,5.058,5.058,0,0,1,1.953.36,4,4,0,0,1,1.475,1.03,4.545,4.545,0,0,1,.928,1.64,6.929,6.929,0,0,1,.322,2.2,6.388,6.388,0,0,1-.337,2.13A4.91,4.91,0,0,1,441.209,1586Zm-0.888-6.86a3.147,3.147,0,0,0-2.569-1.07,3.725,3.725,0,0,0-1.484.28,3.131,3.131,0,0,0-1.138.82,3.846,3.846,0,0,0-.727,1.33,5.8,5.8,0,0,0-.254,1.78,5.219,5.219,0,0,0,.254,1.69,3.661,3.661,0,0,0,.717,1.29,3.079,3.079,0,0,0,1.128.83,3.732,3.732,0,0,0,1.485.29,3.812,3.812,0,0,0,1.484-.28,3.038,3.038,0,0,0,1.094-.81,3.619,3.619,0,0,0,.679-1.31,6.164,6.164,0,0,0,.229-1.75A4.679,4.679,0,0,0,440.321,1579.14Zm-11.442-1.07a3.639,3.639,0,0,0-1.582.33,3.448,3.448,0,0,0-1.167.92,4.12,4.12,0,0,0-.722,1.36,5.3,5.3,0,0,0-.25,1.64,5.561,5.561,0,0,0,.21,1.54,3.725,3.725,0,0,0,.645,1.29,3.063,3.063,0,0,0,1.1.89,3.341,3.341,0,0,0,1.562.34,4.157,4.157,0,0,0,2.539-.84v1.23a5.2,5.2,0,0,1-2.7.69,4.627,4.627,0,0,1-1.934-.37,4.223,4.223,0,0,1-1.465-1.06,4.737,4.737,0,0,1-.927-1.6,6.1,6.1,0,0,1-.323-2.01,6.4,6.4,0,0,1,.342-2.11,5.059,5.059,0,0,1,1-1.73,4.785,4.785,0,0,1,1.6-1.17,5.631,5.631,0,0,1,4.433.05v1.33A4.216,4.216,0,0,0,428.879,1578.07Zm-8.748,3.27a7.108,7.108,0,0,0-.137-1.52,2.662,2.662,0,0,0-.424-1.01,1.681,1.681,0,0,0-.733-0.57,2.822,2.822,0,0,0-1.059-.17,2.2,2.2,0,0,0-1.036.25,2.771,2.771,0,0,0-.854.72,3.449,3.449,0,0,0-.576,1.07,4.058,4.058,0,0,0-.21,1.32v5.79h-1.25v-6.01c0-2.1-.8-3.14-2.412-3.14a2.273,2.273,0,0,0-1.035.24,2.626,2.626,0,0,0-.835.7,3.342,3.342,0,0,0-.557,1.08,4.587,4.587,0,0,0-.2,1.39v5.74h-1.25v-10h1.25v1.62h0.039a3.349,3.349,0,0,1,3.076-1.86,3.247,3.247,0,0,1,1,.16,3.009,3.009,0,0,1,.84.45,2.871,2.871,0,0,1,.64.69,3.121,3.121,0,0,1,.405.88,4,4,0,0,1,1.372-1.62,3.4,3.4,0,0,1,1.909-.56c2.194,0,3.291,1.36,3.291,4.06v6.18h-1.25v-5.88Zm-16.807,4.1h-0.039a3.633,3.633,0,0,1-1.333,1.48,3.544,3.544,0,0,1-1.909.53,4.073,4.073,0,0,1-1.3-.2,2.724,2.724,0,0,1-.987-0.59,2.561,2.561,0,0,1-.625-0.9,3,3,0,0,1-.22-1.16,2.832,2.832,0,0,1,.84-2.16,4.477,4.477,0,0,1,2.539-1.05l3.037-.44q0-2.88-2.236-2.88a4.855,4.855,0,0,0-3.242,1.28v-1.37a4.136,4.136,0,0,1,.708-0.41,6.925,6.925,0,0,1,.835-0.31,5.464,5.464,0,0,1,.9-0.2,5.68,5.68,0,0,1,.9-0.08,3.228,3.228,0,0,1,2.524.94,4.016,4.016,0,0,1,.854,2.79v6.51h-1.25v-1.78Zm0-3.44-2.578.36a8.105,8.105,0,0,0-1.152.25,2.331,2.331,0,0,0-.791.39,1.484,1.484,0,0,0-.459.62,2.4,2.4,0,0,0-.146.9,1.877,1.877,0,0,0,.141.74,1.588,1.588,0,0,0,.41.59,1.794,1.794,0,0,0,.655.39,2.631,2.631,0,0,0,.874.14,2.929,2.929,0,0,0,2.182-.96,3.32,3.32,0,0,0,.635-1.07,3.93,3.93,0,0,0,.229-1.36V1582Zm-7.955,5.22h-1.5l-2.032-3.31c-0.078-.13-0.158-0.25-0.239-0.39s-0.164-.27-0.249-0.42h-0.039a1.962,1.962,0,0,1-.151.26c-0.069.11-.152,0.25-0.249,0.41l-2.188,3.45h-1.475l3.379-4.9-3.271-5.1h1.455l2.08,3.5q0.156,0.27.273,0.48c0.079,0.14.144,0.25,0.2,0.34H391.4c0.084-.12.162-0.25,0.234-0.37s0.147-.26.225-0.39l2.207-3.56h1.406l-3.379,5.07Zm-15.966-3.13a3.488,3.488,0,0,0,.673,1.24,2.9,2.9,0,0,0,1.07.78,3.572,3.572,0,0,0,1.421.27,5.083,5.083,0,0,0,3.193-1.19v1.24a5.847,5.847,0,0,1-3.477,1.02,4.669,4.669,0,0,1-1.826-.35,3.915,3.915,0,0,1-1.4-1.02,4.728,4.728,0,0,1-.889-1.65,7.277,7.277,0,0,1-.312-2.22,6.1,6.1,0,0,1,.341-2.08,5.178,5.178,0,0,1,.948-1.66,4.377,4.377,0,0,1,1.435-1.09,4.086,4.086,0,0,1,1.817-.4,4.015,4.015,0,0,1,1.709.34,3.28,3.28,0,0,1,1.245.96,4.438,4.438,0,0,1,.766,1.52,7.154,7.154,0,0,1,.264,2.02v0.62h-7.227A5.608,5.608,0,0,0,379.4,1584.09Zm5.693-2.74a3.805,3.805,0,0,0-.742-2.42,2.416,2.416,0,0,0-1.983-.86,3.032,3.032,0,0,0-1.176.22,2.855,2.855,0,0,0-.953.65,3.455,3.455,0,0,0-.678,1.04,5.065,5.065,0,0,0-.376,1.37H385.1Zm93.717,5.87h-1.25v-10h1.25v10Zm3.4-8.83a4.256,4.256,0,0,1,1.568-1.05,5.568,5.568,0,0,1,2.05-.36,5.058,5.058,0,0,1,1.953.36,4,4,0,0,1,1.475,1.03,4.545,4.545,0,0,1,.928,1.64,6.929,6.929,0,0,1,.322,2.2,6.388,6.388,0,0,1-.337,2.13,4.91,4.91,0,0,1-.962,1.66,4.22,4.22,0,0,1-1.523,1.07,5.23,5.23,0,0,1-2.031.38,5.064,5.064,0,0,1-2-.37,4.323,4.323,0,0,1-1.509-1.05,4.537,4.537,0,0,1-.957-1.63,6.285,6.285,0,0,1-.332-2.1,6.631,6.631,0,0,1,.351-2.23A4.726,4.726,0,0,1,482.212,1578.39Zm0.191,5.58a3.661,3.661,0,0,0,.717,1.29,3.079,3.079,0,0,0,1.128.83,3.732,3.732,0,0,0,1.485.29,3.812,3.812,0,0,0,1.484-.28,3.038,3.038,0,0,0,1.094-.81,3.619,3.619,0,0,0,.679-1.31,6.164,6.164,0,0,0,.229-1.75,4.679,4.679,0,0,0-.9-3.09,3.147,3.147,0,0,0-2.569-1.07,3.725,3.725,0,0,0-1.484.28,3.131,3.131,0,0,0-1.138.82,3.846,3.846,0,0,0-.727,1.33,5.8,5.8,0,0,0-.254,1.78A5.219,5.219,0,0,0,482.4,1583.97Zm11.41-5.02h0.039a3.619,3.619,0,0,1,3.349-1.97,3.027,3.027,0,0,1,2.5,1.07,4.78,4.78,0,0,1,.86,3.07v6.1h-1.25v-5.77c0-2.25-.82-3.38-2.461-3.38a2.87,2.87,0,0,0-1.211.25,3.1,3.1,0,0,0-.962.72,3.418,3.418,0,0,0-.635,1.09,3.971,3.971,0,0,0-.229,1.36v5.73h-1.25v-10h1.25v1.73Zm10.326,6.58a0.9,0.9,0,0,1,.366.07,0.879,0.879,0,0,1,.3.2,0.906,0.906,0,0,1,.283.67,0.877,0.877,0,0,1-.078.37,1.149,1.149,0,0,1-.2.3,1.053,1.053,0,0,1-.3.2,0.9,0.9,0,0,1-.366.07,0.929,0.929,0,0,1-.938-0.94,0.924,0.924,0,0,1,.269-0.67A0.905,0.905,0,0,1,504.139,1585.53Z" transform="translate(-377.875 -1529.09)"/>
</svg>
