<svg xmlns="http://www.w3.org/2000/svg" width="136.813" height="130.562" viewBox="0 0 136.813 130.562">
  <defs>
    <style>
      .cls-1 {
        fill: #354b5e;
        fill-rule: evenodd;
      }
    </style>
  </defs>
  <path id="arts_design.svg" class="cls-1" d="M133.005,62.225c-15.176,16.907-24.572,27.692-39.569,44.76l0.471,0.467-2.323,2.308-0.852-.854c-5.575,3.424-9.817,6.052-15.329,9.718a10.753,10.753,0,0,1-2.4,9.162,14.644,14.644,0,0,1-4.751,3.622c-7.952,4.17-20.663,1.23-20.663,1.23,6.059-.862,5.821-10.289,6.548-13.985a10.788,10.788,0,0,1,2.41-4.953,10.989,10.989,0,0,1,.956-0.965c0.087-.08.176-0.151,0.267-0.229,0.272-.23.553-0.444,0.843-0.647,0.078-.052.152-0.111,0.233-0.16a11.1,11.1,0,0,1,1.166-.669h0.006a10.42,10.42,0,0,1,1.212-.493c0.076-.027.154-0.053,0.231-0.073a10.352,10.352,0,0,1,1.167-.308c0.033-.006.068-0.016,0.1-0.024a11.161,11.161,0,0,1,2.689-.169c0.06,0,.124.008,0.184,0.014a10.826,10.826,0,0,1,1.315.173c3.672-5.487,6.308-9.715,9.733-15.276L75.8,94.019l2.322-2.314,0.469,0.473c17.11-14.959,27.932-24.323,44.874-39.461C133.543,43.7,142.043,52.171,133.005,62.225Zm-63.517,13.3C58.369,74.821,51.822,89.4,49.876,96.26,43,120.513,1.861,116.114.1,84-4.41,1.306,63.64-10.892,92.036,15.677c23.265,21.772,19.221,40.789,7.9,52.844C91.44,77.565,83.248,76.4,69.488,75.528ZM14.608,43.079a8.054,8.054,0,1,0,10.727,3.892A8.044,8.044,0,0,0,14.608,43.079Zm18-23.262a8.053,8.053,0,1,0,5.713,9.862A8.075,8.075,0,0,0,32.609,19.817Zm6.835,66.357C37.29,80.681,30.1,78.342,23.4,80.963s-10.4,9.2-8.246,14.691,9.34,7.834,16.047,5.215S41.6,91.67,39.444,86.174ZM61.392,13.536A8.068,8.068,0,1,0,59.41,24.754,8.083,8.083,0,0,0,61.392,13.536ZM80.15,18.455a8.053,8.053,0,1,0,7.337,8.724A8.077,8.077,0,0,0,80.15,18.455ZM98.687,42.973a8.062,8.062,0,1,0,0,11.388A8.09,8.09,0,0,0,98.687,42.973Z" transform="translate(0 -3.094)"/>
</svg>
