<svg xmlns="http://www.w3.org/2000/svg" width="137" height="66.657" viewBox="0 0 137 66.657">
  <defs>
    <style>
      .cls-1 {
        fill: #354b5e;
        fill-rule: evenodd;
      }
    </style>
  </defs>
  <path id="college_grad_school.svg" class="cls-1" d="M137.011,65.048L121.58,71.776v8.358a2.4,2.4,0,0,1,1.346,2.223,2.473,2.473,0,0,1-.957,2v1.651a3.052,3.052,0,0,1,1,1.951c0.513,5.462.722,7.483,1.623,8.4,0.3,1.254-1.36,2.714-3.744,2.733-0.007,0-.015,0-0.022,0s-0.021,0-.03,0c-2.385-.015-4.053-1.471-3.746-2.733,0.9-.91,1.1-2.934,1.618-8.4a3.029,3.029,0,0,1,.994-1.944V84.356a2.478,2.478,0,0,1-.959-2,2.388,2.388,0,0,1,1.355-2.223V72.44l-6.7,2.922V71.214s-1.638-.572-4.765-1.353c-6.628-1.676-20-4.288-39.029-4.288-28.008,0-43.178,5.663-43.178,5.663v5.315l-26.388-11.5L68.5,35.168l51.958,22.66a0.673,0.673,0,0,1,.359-0.117,0.77,0.77,0,0,1,.713.585Zm-32.228,6.327c2.932,0.73,4.466,1.269,4.466,1.269v29.172s-2.491-.664-6.633-1.53a178.237,178.237,0,0,0-34.182-3.774,178.358,178.358,0,0,0-40.678,5.3V72.663s14.217-5.3,40.46-5.3C86.037,67.359,98.572,69.805,104.783,71.375Z" transform="translate(0 -35.156)"/>
</svg>
