<svg xmlns="http://www.w3.org/2000/svg" width="98.438" height="136.938" viewBox="0 0 98.438 136.938">
  <defs>
    <style>
      .cls-1 {
        fill: #354b5e;
        fill-rule: evenodd;
      }
    </style>
  </defs>
  <path id="_college_exams.svg" data-name=" college_exams.svg" class="cls-1" d="M115.87,46.554l-1.5,2.6,1.5,2.6a13.722,13.722,0,0,1-5.042,18.772l-2.6,1.5v3a13.745,13.745,0,0,1-11.572,13.55c-0.163.026-.328,0.041-0.492,0.063l11.679,41.188-16.068-7.743-9.624,14.989L70.514,96.052,68.5,94.891l-2.014,1.16L54.855,137.068l-9.623-14.989-16.067,7.743L40.84,88.645A13.75,13.75,0,0,1,28.778,75.021v-3l-2.6-1.5A13.723,13.723,0,0,1,21.131,51.75l1.5-2.6-1.5-2.6a13.722,13.722,0,0,1,5.044-18.773l2.6-1.5v-3A13.762,13.762,0,0,1,42.558,9.54h3.009l1.5-2.6A13.8,13.8,0,0,1,65.9,1.913l2.6,1.5,2.605-1.5a13.8,13.8,0,0,1,18.824,5.03l1.5,2.6h3.01c0.384,0,.762.027,1.138,0.057,0.089,0.008.18,0.005,0.269,0.014a13.758,13.758,0,0,1,12.373,13.671v3l2.6,1.5A13.722,13.722,0,0,1,115.87,46.554ZM68.5,7A42.122,42.122,0,0,0,42.6,82.45h0a42.269,42.269,0,0,0,8.527,5.126L51.173,87.6a42.015,42.015,0,0,0,9.664,3L60.9,90.612a42.586,42.586,0,0,0,6.938.676h0c0.222,0,.442.017,0.664,0.017s0.442-.013.663-0.017h0a42.582,42.582,0,0,0,6.942-.677l0.053-.01a42.02,42.02,0,0,0,9.672-3l0.04-.018A42.282,42.282,0,0,0,94.4,82.45h0A42.122,42.122,0,0,0,68.5,7Zm-0.039,4.238A37.915,37.915,0,1,0,106.48,49.151,37.965,37.965,0,0,0,68.462,11.237Zm0,6.982A30.933,30.933,0,1,0,99.48,49.151,30.976,30.976,0,0,0,68.462,18.219ZM85.139,61.1H78.812V53.3H71.942v-5.76h6.869V39.97h6.327v7.574h6.849V53.3H85.139V61.1ZM62.7,58.367h-9.22l-1.647,5.641H45l9.44-29.021h7.291l9.461,29.021H64.365ZM58.138,42.8H58.017L54.984,53.185h6.206Z" transform="translate(-19.281 -0.063)"/>
</svg>
