<svg xmlns="http://www.w3.org/2000/svg" width="100.031" height="137" viewBox="0 0 100.031 137">
  <defs>
    <style>
      .cls-1 {
        fill: #354b5e;
        fill-rule: evenodd;
      }
    </style>
  </defs>
  <path id="company_licensing.svg" class="cls-1" d="M90.044,94.376l9.765,37.369L85.765,119.586l-5.371,17.4-8.777-33.127,4.167-6.807,11.85,9.146ZM68,17.527c18.643,0,33.666,15.28,33.666,34.241A33.866,33.866,0,0,1,68,85.9c-18.542,0-33.565-15.275-33.565-34.131C34.437,32.807,49.46,17.527,68,17.527h0ZM68,0.014L75.24,11.393,85.434,3.14,88.292,16.3l12.4-4.126-1.65,13.273,12.949,0.446-6.039,11.937,12.069,4.906-9.65,9.145,9.65,8.811-12.175,5.246,6.145,11.6-13.167.673,1.868,13.051-12.614-3.9-2.639,12.937L74.909,92.148,68,103.416,60.867,92.038l-10.2,8.253L47.707,87.132,35.418,91.257l1.649-13.275-13.052-.448L30.045,65.6l-12.06-4.91,9.756-9.145-9.756-8.811L30.16,37.493l-6.145-11.6,13.27-.668L35.418,12.173l12.615,3.9L50.67,3.14,61.2,11.278ZM68,14.18c20.394,0,36.962,16.73,36.962,37.588C104.964,72.516,88.4,89.246,68,89.246A37.2,37.2,0,0,1,31.037,51.768C31.037,30.91,47.595,14.18,68,14.18h0ZM45.84,93.932l-9.648,36.7,11.738-9.7L55.6,135.873l8.559-32.347L60.1,97.055,48.585,106.2Z" transform="translate(-18)"/>
</svg>
