<svg xmlns="http://www.w3.org/2000/svg" width="104.876" height="137" viewBox="0 0 104.876 137">
  <defs>
    <style>
      .cls-1 {
        fill: #354b5e;
        fill-rule: evenodd;
      }
    </style>
  </defs>
  <path id="easy_exam_preparation.svg" class="cls-1" d="M114.827,136.99H22.173a6.1,6.1,0,0,1-6.1-6.1V6.114a6.1,6.1,0,0,1,6.1-6.1h92.654a6.1,6.1,0,0,1,6.1,6.1V130.886A6.1,6.1,0,0,1,114.827,136.99ZM111,10H26V127h85V10Zm-4.154,14.942H30.154V18.829h76.692v6.113Zm-62.4,4.277,0.021,0.021h0.013v0.013l2.4,2.4-2.4,2.4v9.519H30.154V29.24H44.426ZM43.334,35.2l-5.952,5.953-5.239-5.24,2.431-2.432,2.808,2.808,5.9-5.9H31.3V42.422H43.334V35.2Zm1.113,19.992,0.021,0.021h0.013v0.013l2.4,2.4-2.4,2.4v9.52H30.154V55.208H44.426Zm-1.113,5.976-5.952,5.953-5.239-5.239,2.431-2.432,2.808,2.808,5.9-5.9H31.3V68.39H43.334V61.163Zm1.113,19.992,0.02,0.02h0.013v0.013l2.4,2.4-2.4,2.4V95.5H30.154V81.176H44.427Zm-1.113,5.976-5.952,5.953-5.239-5.24,2.431-2.432,2.808,2.808,5.9-5.9H31.3V94.359H43.334V87.132Zm1.146,34.341H30.154V107.144H44.481v14.329ZM43.334,108.29H31.3v12.036H43.334V108.29Zm58.077-38.753H50.161v-2.13h51.251v2.13Zm5.435,13.77H50.161v-2.13h56.685v2.13Zm0,6.1H50.161v-2.13h56.685v2.13Zm0,19.869H50.161v-2.13h56.685v2.13Zm0,6.1H50.161v-2.131h56.685v2.131Zm-38.346,6.1H50.161v-2.13H68.5v2.13ZM50.161,61.307h56.685v2.13H50.161v-2.13Zm0-6.1h56.685v2.13H50.161v-2.13Zm0-11.64v-2.13H88.939v2.13H50.161Zm0-8.229h56.685v2.13H50.161v-2.13Zm0-6.1h56.685v2.13H50.161V29.24Z" transform="translate(-16.063)"/>
</svg>
