<svg xmlns="http://www.w3.org/2000/svg" width="136" height="137" viewBox="0 0 136 137">
  <defs>
    <style>
      .cls-1 {
        fill: #354b5e;
        fill-rule: evenodd;
      }
    </style>
  </defs>
  <path id="for_hr_reviews.svg" class="cls-1" d="M56.551,60.216a10.3,10.3,0,1,0-11.106,0,13.257,13.257,0,0,0-12,13.223v9.239a37.866,37.866,0,0,0,35.1.192V73.439A13.258,13.258,0,0,0,56.551,60.216Zm75.7,54.845-31.2-31.425A60.4,60.4,0,0,1,83.026,101.8l31.2,31.426a12.678,12.678,0,0,0,18.029,0,12.908,12.908,0,0,0,0-18.16M101.991,51.373A50.994,50.994,0,1,0,51,102.737a51.186,51.186,0,0,0,50.993-51.364M51,89.9A38.527,38.527,0,1,1,89.243,51.373,38.429,38.429,0,0,1,51,89.9M21.253,51.373h8.5A21.353,21.353,0,0,1,51,29.966V21.409A29.889,29.889,0,0,0,21.253,51.373"/>
</svg>
