<svg xmlns="http://www.w3.org/2000/svg" width="137" height="95" viewBox="0 0 137 95">
  <defs>
    <style>
      .cls-1 {
        fill: #354b5e;
        fill-rule: evenodd;
      }
    </style>
  </defs>
  <path id="foreign_languages.svg" class="cls-1" d="M2.654,39.354H92.07v-0.5a20.878,20.878,0,0,1,.378-4c0.944,1.563,1.952,3.064,2.963,4.5v0.062h0.063v0.063h0.061V39.54h0V39.6H95.6v0.063h0.063v0.062h0l0.063,0.063h0v0.062H95.79v0.063l0.061,0.063h0v0.062h0.064V40.1h0.064v0.062h0l0.063,0.063h0v0.063H96.1v0.063h0l0.064,0.063h0l0.063,0.062h0v0.063h0.064V40.6h0l0.063,0.063h0V40.73h0.063v0.062H96.48v0.063h0A90.524,90.524,0,0,0,107.508,53.3a39.961,39.961,0,0,1-3.782,2.565h-0.061v0.063h-0.127V56h-0.125v0.062H103.35l-0.063.063h-0.064v0.062H103.1v0.063h-0.064l-0.063.063h-0.064l-0.063.062h-0.061v0.063h-0.127l-0.064.062h0l-0.063.063h-0.061l-0.064.063h0l-0.19.062h0l-0.124.126h-0.127v0.063H101.9C99.758,58,96.731,59.311,95.16,59H95.1c-0.632-1.187.566-4.629,1.574-6.943h0V51.928h0.061V51.865h0l0.064-.063V51.74h0V51.677h0.064V51.616h0V51.553h0l0.063-.062h0V51.428h0l0.063-.063h0V51.3h0V51.24h0l0.061-.062h0V51.115h0l0.064-.063h0V50.991h0l0.063-.063h0V50.866h0V50.8h0.064V50.74h0V50.678H97.3V50.615h0V50.552h0.059V50.489h0V50.427h0.066V50.364h0V50.3H97.49V50.239h0V50.176h0l0.754-1.5L97.49,47.11a0.958,0.958,0,0,1-.129-0.25,8.237,8.237,0,0,0-.376-0.75l-2.836-6.7L90.811,45.86c-2.585,5.006-6.3,14.14-1.386,18.957a8.286,8.286,0,0,0,6.05,2.252c4.536,0,9.576-2.566,13.293-4.943,0.883-.562,1.7-1.126,2.521-1.689v45.922a2.653,2.653,0,0,1-2.648,2.627H2.654a2.654,2.654,0,0,1-2.645-2.627V41.98a2.653,2.653,0,0,1,2.645-2.627h0ZM112.8,53.555a69.552,69.552,0,0,1-7.309,5.193c-4.537,2.691-8.508,4.129-11.092,3.567-4.034-.939-3.526-6.445.063-13.639-0.063-.125-0.127-0.188-0.188-0.313-0.127-.314-0.315-0.626-0.442-1-4.978,9.571-4.6,16.328,1.64,16.328,3.024,0,7.118-1.626,11.467-4.441a63.611,63.611,0,0,0,6.741-4.943c0.947,0.751,1.891,1.5,2.775,2.189s1.825,1.316,2.709,1.941c0.439,0.25.817,0.562,1.259,0.813,4.41,2.815,8.444,4.441,11.531,4.441,6.238,0,6.553-6.757,1.637-16.328-0.187.437-.375,0.812-0.566,1.189a0.215,0.215,0,0,0-.063.125c3.592,7.194,4.095,12.7.063,13.639-2.582.562-6.616-.876-11.153-3.567q-0.849-.563-1.7-1.126a37.518,37.518,0,0,1-3.4-2.377c-0.694-.564-1.453-1.128-2.143-1.69,0.69-.625,1.32-1.251,2.016-1.878a85.783,85.783,0,0,0,7.436-7.631c1.383-1.69,2.772-3.379,4.095-5.194a60.5,60.5,0,0,0,5.356-8.509c4.977-9.509,4.662-16.329-1.576-16.329-3.087,0-7.121,1.69-11.531,4.443l0.188,0.063h0a5.457,5.457,0,0,1,1.073.438c4.222-2.565,8.252-4.066,10.773-3.5,4.034,0.876,3.782,6.383.38,13.452a62.191,62.191,0,0,1-7.941,12.45c-0.5.625-1.008,1.25-1.574,1.877a95.948,95.948,0,0,1-6.994,7.257c-0.884.814-1.765,1.565-2.648,2.315A83.943,83.943,0,0,1,102.53,41.355a62.022,62.022,0,0,1-7.939-12.388c-3.4-7.131-3.653-12.638.378-13.513,2.521-.562,6.553.939,10.712,3.5a10.277,10.277,0,0,1,1.261-.5c-4.349-2.752-8.443-4.443-11.467-4.443-6.3,0-6.618,6.82-1.64,16.392a64.315,64.315,0,0,0,5.418,8.446,89.747,89.747,0,0,0,13.55,14.7h0ZM100.136,24.338l3.844-.564,1.764-.938L107.7,23.4l3.214-.187,1.072-1.69,1.637,0.251,3.844-.376,0.254-.313-1.386-.5-0.125.125-1.954.188-0.884-.563,0.757-.5-0.252-.063-2.963.939,0.127,0.188-2.962.813V21.647h-0.064a7.975,7.975,0,0,0-1.069.438l-1.576.627-1.45-.876c-0.441-.252-1.071-0.626-1.891-1.064a21.116,21.116,0,0,0-4.979,4.442h0Zm15.563-6.82c-0.693-.062-1.323-0.125-2.016-0.125-0.63,0-1.323.063-1.952,0.125l1.952,1.252Zm-1.006,29.844-0.063-.189,1.449-2.94L114.63,43.8l-1.64-1.627-1.7-.374a2.665,2.665,0,0,0-2.648-2.44h-0.188l-0.251-.5v0.5h-1.26l-2.33-3.191V32.722l-2.334-3.628-3.528.625a70.092,70.092,0,0,0,6.428,9.511l0.124,0.125h0l0.064,0.125,0.063,0.062V39.6l0.127,0.063h0l0.061,0.125,0.064,0.062,0.063,0.063,0.064,0.063v0.062l0.061,0.063h0.063L106,40.229l0.063,0.063v0.063l0.063,0.063h0.061l0.064,0.125V40.6l0.127,0.063V40.73l0.063,0.062,0.061,0.063h0l0.13,0.125v0.063l0.061,0.062,0.063,0.063h0.061l0.066,0.126h0l0.127,0.125v0.063h0.063l0.061,0.125h0l0.127,0.125h0l0.064,0.063,0.124,0.125h0l0.063,0.125h0.064l0.063,0.125H107.7v0.063l0.127,0.125h0l0.064,0.125h0.063l0.061,0.063,0.064,0.062v0.063l0.127,0.126h0l0.063,0.063,0.061,0.062,0.064,0.063,0.063,0.062h0l0.127,0.126v0.062l0.061,0.063,0.063,0.062h0.064l0.063,0.125h0l0.127,0.127h0l0.061,0.062,0.127,0.125h0l0.064,0.126h0.063l0.063,0.062,0.064,0.063v0.062l0.124,0.125,0.064,0.063,0.063,0.063,0.064,0.062,0.063,0.063h0.061l0.063,0.125h0l0.127,0.125,0.064,0.063h0l0.124,0.125h0l0.064,0.063,0.063,0.063,0.064,0.063,0.061,0.062v0.063L110.6,45.3h0l0.127,0.126v0.062h0.061l0.126,0.125h0l0.064,0.126h0.063L111.1,45.8l0.064,0.063v0.063l0.127,0.063c0.82,0.813,1.574,1.564,2.394,2.314A1.656,1.656,0,0,0,114,47.987ZM111.606,60.25c0.691,0.062,1.384.125,2.077,0.125,0.756,0,1.449-.063,2.142-0.125-0.505-.377-0.944-0.689-1.449-1.064a6.538,6.538,0,0,0-.693-0.565c-0.693.565-1.386,1.127-2.077,1.628h0Zm18.272-33.034-2.333.188L126.6,28.967l-0.691-.187-2.774-2.5-0.379-1.25-0.5-1.376-1.767-1.5-2.016-.439-0.061.939,2.016,1.938,0.944,1.127-1.071.562-0.881-.25-1.386-.562,0.061-1.064-1.762-.689-0.569,2.5L114,26.59l0.188,1.439,2.27,0.437,0.439-2.252,1.891,0.251,0.881,0.562h1.389l1,1.878,2.585,2.627-0.191,1-2.079-.251-3.59,1.815-2.582,3.065-0.381,1.315h-0.88l-1.765-.751-1.637.751,0.378,1.751,0.754-.813,1.259-.062-0.061,1.626,1.072,0.314,1.068,1.187,1.7-.5,1.952,0.313c0.379-.437.693-0.812,1.074-1.25,0.5-.625,1.006-1.19,1.511-1.814a63.794,63.794,0,0,0,7.56-11.763Zm-3.151,18.957,2.143,1.25-2.458,4.63-2.521,1.126-0.883,2.252,0.632,0.376a20.9,20.9,0,0,0,1.825,1.064,21.6,21.6,0,0,0,5.3-4.817c-0.381-.814-0.695-1.5-0.883-1.878l-0.82-1.689L130,46.923a5.01,5.01,0,0,0,.444-0.813l2.773-6.7,1.764,3.316a19.365,19.365,0,0,0,.378-3.879,20.892,20.892,0,0,0-.444-4c-1.2,2.064-2.582,4.067-3.968,6.006-1.386,1.814-2.772,3.566-4.222,5.319h0ZM36.116,58.934h-5.86L20.614,90.405h4.915l2.709-9.26H37.88l2.9,9.26h5.044ZM28.994,77.516l2.523-8.258c0.5-1.939,1.006-4.254,1.447-6.193h0.124c0.442,1.939.947,4.13,1.577,6.193l2.458,8.258H28.994Zm25.771-6.568V57.5H49.914V84.335c0,2.066-.063,4.567-0.124,6.07h4.1l0.251-3.442h0.127a7.177,7.177,0,0,0,6.743,3.879c4.664,0,9.515-3.879,9.515-12.074,0-6.945-3.592-11.512-8.822-11.512a7.506,7.506,0,0,0-6.868,3.692H54.766Zm0,6.069c0-3,2.206-5.881,5.232-5.881,3.78,0,5.672,3.566,5.672,7.82,0,4.817-2.018,8.069-5.735,8.069a5.308,5.308,0,0,1-5.169-5.567V77.017ZM89.928,86.15a10.716,10.716,0,0,1-4.283.875c-3.971,0-6.931-2.939-6.931-7.944,0-4.38,2.457-8.008,6.931-8.008a9.459,9.459,0,0,1,4.093.876l0.947-3.63a11.894,11.894,0,0,0-5.04-1.062c-7.312,0-11.785,5.193-11.785,12.074,0,7.07,4.285,11.512,10.838,11.512a14.759,14.759,0,0,0,5.862-1.126Z" transform="translate(0 -14)"/>
</svg>
