<svg xmlns="http://www.w3.org/2000/svg" width="137" height="116.531" viewBox="0 0 137 116.531">
  <defs>
    <style>
      .cls-1 {
        fill: #354b5e;
        fill-rule: evenodd;
      }
    </style>
  </defs>
  <path id="law_school.svg" class="cls-1" d="M129.819,83.324c-4.588,1.093-8.256.927-15.482,0-5.513-.707-42.27-9.647-59.385-13.845L51.126,83.687l2.05,9.44L1.147,77.081,13.13,64.069,24.236,25.917,19.862,10.726,72.877,25.919l-7.784,5.908L59.579,52.3c20.083,3.017,66.172,9.965,69.206,10.652C133.959,64.126,137,67.5,137,72.115,137,78.862,134.408,82.231,129.819,83.324Zm-63.93,26.339,8.237,17.592H0l5.489-17.592h60.4Z" transform="translate(0 -10.719)"/>
</svg>
