<svg xmlns="http://www.w3.org/2000/svg" width="137" height="120" viewBox="0 0 137 120">
  <defs>
    <style>
      .cls-1 {
        fill: #354b5e;
        fill-rule: evenodd;
      }
    </style>
  </defs>
  <path id="medical_school.svg" class="cls-1" d="M119.892,127.988H17.091A17.142,17.142,0,0,1,0,110.883V47.7c0-9.409,7.684-15.917,17.087-15.917H36.442V25.122A17.141,17.141,0,0,1,53.53,8.013H83.448a17.158,17.158,0,0,1,17.1,17.11v6.656h19.341c9.422,0,17.1,6.509,17.1,15.917v63.188A17.144,17.144,0,0,1,119.892,127.988ZM41.013,91.335H59.339v18.334h18.31V91.335H95.962V68.428H77.646V50.107H59.33V68.428H41.013V91.335ZM91.385,25.122a8.2,8.2,0,0,0-7.937-7.947H53.53A8.2,8.2,0,0,0,45.6,25.122v6.656H91.385V25.122Z" transform="translate(0 -8)"/>
</svg>
