<svg xmlns="http://www.w3.org/2000/svg" width="137" height="120.438" viewBox="0 0 137 120.438">
  <defs>
    <style>
      .cls-1 {
        fill: #354b5e;
        fill-rule: evenodd;
      }
    </style>
  </defs>
  <path id="middle_high_school.svg" class="cls-1" d="M137,118.405A10.615,10.615,0,0,1,126.4,129H10.6A10.615,10.615,0,0,1,0,118.405V33.993H41.369a26.661,26.661,0,0,1,53.264,0H137v84.412ZM68,21.949A13.359,13.359,0,0,0,54.717,33.993H81.284A13.358,13.358,0,0,0,68,21.949ZM37.923,75.036H27.731A3.683,3.683,0,0,0,24.42,77.02L0,56.2V66.216l23.9,20.4v8.558a3.826,3.826,0,0,0,3.829,3.809H37.923A3.814,3.814,0,0,0,41.7,95.179V88.916H95.043v6.263a3.815,3.815,0,0,0,3.777,3.809h10.193a3.826,3.826,0,0,0,3.828-3.809V86.621L137,65.957V55.989L112.324,77.02a3.684,3.684,0,0,0-3.311-1.984H98.82a3.815,3.815,0,0,0-3.777,3.809V81.3H41.7V78.845a3.814,3.814,0,0,0-3.777-3.809h0ZM94.543,90.53V88.818H41.2V90.53" transform="translate(0 -8.563)"/>
</svg>
