<svg xmlns="http://www.w3.org/2000/svg" width="75" height="137" viewBox="0 0 75 137">
  <defs>
    <style>
      .cls-1 {
        fill: #354b5e;
        fill-rule: evenodd;
      }
    </style>
  </defs>
  <path id="preparation_on_the_go.svg" class="cls-1" d="M99.124,137.009H35.876a5.9,5.9,0,0,1-5.869-5.895V5.886a5.9,5.9,0,0,1,5.869-5.9H99.124a5.9,5.9,0,0,1,5.869,5.9V131.6A5.668,5.668,0,0,1,99.124,137.009ZM68.01,130.745a4.385,4.385,0,1,0-4.365-4.385A4.375,4.375,0,0,0,68.01,130.745ZM80,7.8H56.024a1.474,1.474,0,0,0,0,2.948H80A1.474,1.474,0,0,0,80,7.8Zm19.026,9.726h-63.2v98.288h63.2V17.526ZM40.6,23.991H94.321C95.81,23.991,97,25.462,97,27.3a3,3,0,0,1-2.678,3.221H40.6c-1.413,0-2.6-1.473-2.6-3.221C38,25.462,39.191,23.991,40.6,23.991Zm0,15.73H94.321c1.488,0,2.678,1.471,2.678,3.31a3,3,0,0,1-2.678,3.22H40.6c-1.413,0-2.6-1.471-2.6-3.22C38,41.193,39.191,39.721,40.6,39.721Zm0,15.728H94.321C95.81,55.45,97,56.923,97,58.761s-1.19,3.312-2.678,3.312H40.6c-1.413,0-2.6-1.472-2.6-3.312S39.191,55.45,40.6,55.45Zm0,15.73H94.321C95.81,71.18,97,72.65,97,74.492S95.81,77.8,94.321,77.8H40.6c-1.413,0-2.6-1.473-2.6-3.311S39.191,71.18,40.6,71.18Zm0,15.729H94.321C95.81,86.909,97,88.38,97,90.22s-1.19,3.311-2.678,3.311H40.6c-1.413,0-2.6-1.471-2.6-3.311S39.191,86.909,40.6,86.909Zm0,17.476H94.321c1.488,0,2.678,1.473,2.678,3.311s-1.19,3.311-2.678,3.311H40.6c-1.413,0-2.6-1.471-2.6-3.311S39.191,104.385,40.6,104.385Z" transform="translate(-30)"/>
</svg>
