<svg xmlns="http://www.w3.org/2000/svg" width="137" height="99.313" viewBox="0 0 137 99.313">
  <defs>
    <style>
      .cls-1 {
        fill: #354b5e;
        fill-rule: evenodd;
      }
    </style>
  </defs>
  <path id="self_preparation.svg" class="cls-1" d="M75.6,43.9A1.658,1.658,0,0,1,76.972,42L114.9,35.7a1.657,1.657,0,1,1,.548,3.268l-37.933,6.3A1.665,1.665,0,0,1,75.6,43.9ZM77.243,58.55a1.669,1.669,0,0,0,.276-0.023l37.933-6.3a1.657,1.657,0,1,0-.548-3.269l-37.932,6.3A1.657,1.657,0,0,0,77.243,58.55Zm0,13.261a1.679,1.679,0,0,0,.276-0.023l37.933-6.3a1.657,1.657,0,1,0-.548-3.269l-37.932,6.3A1.657,1.657,0,0,0,77.243,71.811Zm0,13.261a1.627,1.627,0,0,0,.276-0.023l37.933-6.3a1.657,1.657,0,1,0-.548-3.268l-37.932,6.3A1.657,1.657,0,0,0,77.243,85.073Zm0,13.261a1.669,1.669,0,0,0,.276-0.023l37.933-6.295a1.657,1.657,0,1,0-.548-3.269L76.972,95.041A1.657,1.657,0,0,0,77.243,98.333ZM21.55,38.97l37.932,6.3A1.657,1.657,0,1,0,60.03,42L22.1,35.7A1.657,1.657,0,1,0,21.55,38.97Zm0,13.261,37.932,6.3a1.657,1.657,0,1,0,.548-3.269L22.1,48.963A1.657,1.657,0,1,0,21.55,52.232Zm0,13.262,37.932,6.3A1.665,1.665,0,0,0,61.4,70.426,1.657,1.657,0,0,0,60.03,68.52L22.1,62.224A1.657,1.657,0,1,0,21.55,65.493Zm0,13.261,37.932,6.3a1.626,1.626,0,0,0,.276.023,1.657,1.657,0,0,0,.272-3.292L22.1,75.486A1.657,1.657,0,1,0,21.55,78.754Zm0,13.262L59.483,98.31a1.657,1.657,0,1,0,.548-3.269L22.1,88.747A1.657,1.657,0,1,0,21.55,92.016ZM137,31.115v77.8a3.321,3.321,0,0,1-3.026,3.3l-65.168,5.962c-0.1.009-.2,0.013-0.305,0.013s-0.2,0-.305-0.013L3.027,112.216A3.321,3.321,0,0,1,0,108.915v-77.8A3.323,3.323,0,0,1,3.332,27.8h8.082v-7.28A1.654,1.654,0,0,1,12,19.261a1.672,1.672,0,0,1,1.344-.375l55.158,8.8,55.158-8.8a1.662,1.662,0,0,1,1.929,1.636V27.8h8.082A3.322,3.322,0,0,1,137,31.115Zm-14.744-8.65-52.09,8.308v80.113l52.09-8.309V31.846a3.109,3.109,0,0,1,0-1.461v-7.92Zm-107.512,0v7.92a3.1,3.1,0,0,1,0,1.461v70.731l52.09,8.309V30.774ZM6.664,105.892l18.348,1.679-12.2-1.946a1.659,1.659,0,0,1-1.4-1.635V34.43H6.664v71.462ZM130.339,34.43h-4.751v69.56a1.659,1.659,0,0,1-1.4,1.635l-12.2,1.946,18.349-1.679V34.43Z" transform="translate(0 -18.875)"/>
</svg>
