<?xml version="1.0" encoding="UTF-8"?>
<!DOCTYPE svg PUBLIC "-//W3C//DTD SVG 1.1//EN" "http://www.w3.org/Graphics/SVG/1.1/DTD/svg11.dtd">
<!-- Creator: CorelDRAW X6 -->
<svg xmlns="http://www.w3.org/2000/svg" xml:space="preserve" width="18px" height="20px" version="1.1" style="shape-rendering:geometricPrecision; text-rendering:geometricPrecision; image-rendering:optimizeQuality; fill-rule:evenodd; clip-rule:evenodd"
viewBox="0 0 237000 263598"
 xmlns:xlink="http://www.w3.org/1999/xlink">
 <defs>
  <style type="text/css">
   <![CDATA[
    .str0 {stroke:#001966;stroke-width:11922}
    .fil0 {fill:#001966;fill-rule:nonzero}
   ]]>
  </style>
 </defs>
 <g id="Слой_x0020_1">
  <metadata id="CorelCorpID_0Corel-Layer"/>
  <path class="fil0 str0" d="M118500 5961c18149,0 34593,8011 46468,20981 11844,12908 19166,30728 19166,50395 0,19651 -7322,37471 -19166,50379 -7463,8136 -16710,14331 -27067,17805 23312,4099 44152,15458 60189,31667 20355,20590 32950,49033 32950,80450l-4866 0c0,-30087 -12047,-57341 -31542,-77055 -19479,-19698 -46389,-31886 -76132,-31886 -29727,0 -56653,12188 -76132,31886 -19494,19714 -31542,46968 -31542,77055l-4866 0c0,-31416 12595,-59860 32950,-80450 16037,-16209 36892,-27568 60189,-31667 -10342,-3473 -19604,-9669 -27067,-17805 -11844,-12908 -19166,-30728 -19166,-50379 0,-19667 7322,-37487 19166,-50395 11891,-12970 28319,-20981 46468,-20981zm42900 24251c-10983,-11985 -26144,-19385 -42900,-19385 -16741,0 -31917,7400 -42900,19385 -11046,12047 -17867,28694 -17867,47125 0,18415 6822,35062 17867,47109 10983,11985 26160,19385 42900,19385 16756,0 31917,-7400 42900,-19385 11046,-12047 17867,-28694 17867,-47109 0,-18431 -6822,-35078 -17867,-47125z"/>
 </g>
</svg>
