<svg xmlns="http://www.w3.org/2000/svg" width="31" height="203" viewBox="0 0 31 203">
  <metadata><?xpacket begin="﻿" id="W5M0MpCehiHzreSzNTczkc9d"?>
<x:xmpmeta xmlns:x="adobe:ns:meta/" x:xmptk="Adobe XMP Core 5.6-c138 79.159824, 2016/09/14-01:09:01        ">
   <rdf:RDF xmlns:rdf="http://www.w3.org/1999/02/22-rdf-syntax-ns#">
      <rdf:Description rdf:about=""/>
   </rdf:RDF>
</x:xmpmeta>
                                                                                                    
                                                                                                    
                                                                                                    
                                                                                                    
                                                                                                    
                                                                                                    
                                                                                                    
                                                                                                    
                                                                                                    
                                                                                                    
                                                                                                    
                                                                                                    
                                                                                                    
                                                                                                    
                                                                                                    
                                                                                                    
                                                                                                    
                                                                                                    
                                                                                                    
                                                                                                    
                           
<?xpacket end="w"?></metadata>
<defs>
    <style>
      .cls-1 {
        fill: #fff;
        fill-rule: evenodd;
      }
    </style>
  </defs>
  <path id="PRODUCTS" class="cls-1" d="M30.047,202.6v-2.871H16.688v-2.051a37.119,37.119,0,0,0-.469-7.305,7.5,7.5,0,0,0-2.51-4.2,7.241,7.241,0,0,0-4.736-1.524,7.171,7.171,0,0,0-4.736,1.563,7.371,7.371,0,0,0-2.49,4.023,32.971,32.971,0,0,0-.43,6.641V202.6H30.047Zm-25.918-7.95a12.4,12.4,0,0,1,.507-4.189A4.312,4.312,0,0,1,6.342,188.4a4.744,4.744,0,0,1,2.641-.781,4.809,4.809,0,0,1,2.68.781,4.429,4.429,0,0,1,1.735,2.149,12.719,12.719,0,0,1,.536,4.316l-0.059,4.864H4.129v-5.079Zm25.918-15.9v-2.871H16.707v-1.623l13.34-10.333v-3.552L16.707,170.7a14.488,14.488,0,0,0-.929-5.664,6.885,6.885,0,0,0-2.689-3.154,7.665,7.665,0,0,0-4.126-1.1,7.169,7.169,0,0,0-4.742,1.6,7.4,7.4,0,0,0-2.513,4.16,34.678,34.678,0,0,0-.391,6.484v5.723H30.047ZM4.129,170.81a12.48,12.48,0,0,1,.508-4.225,4.356,4.356,0,0,1,1.689-2.054,4.654,4.654,0,0,1,2.627-.783,4.86,4.86,0,0,1,2.686.773,4.424,4.424,0,0,1,1.748,2.152,12.3,12.3,0,0,1,.547,4.255l-0.039,4.949H4.129V170.81ZM2.6,148.431a14.577,14.577,0,0,0,5.537,5.462,15.3,15.3,0,0,0,7.676,2,14.381,14.381,0,0,0,10.586-4.4,14.705,14.705,0,0,0,4.375-10.788,14.548,14.548,0,0,0-4.395-10.7,14.578,14.578,0,0,0-10.7-4.388,14.5,14.5,0,0,0-10.723,4.4A14.905,14.905,0,0,0,.594,140.945,14.69,14.69,0,0,0,2.6,148.431Zm2.453-13.755a11.91,11.91,0,0,1,4.427-4.49,12.161,12.161,0,0,1,6.187-1.594,12.467,12.467,0,0,1,6.255,1.594,11.613,11.613,0,0,1,4.437,4.441,12.29,12.29,0,0,1,1.622,6.191,11.7,11.7,0,0,1-3.528,8.559,11.724,11.724,0,0,1-8.65,3.551,12.45,12.45,0,0,1-6.274-1.6,11.952,11.952,0,0,1-4.476-4.461,11.835,11.835,0,0,1-1.662-6.045A12.146,12.146,0,0,1,5.049,134.676Zm25-23.955a18.244,18.244,0,0,0-1.562-8.35,11.96,11.96,0,0,0-4.844-4.844,15.109,15.109,0,0,0-7.6-1.865A15.432,15.432,0,0,0,7.43,98.016a12.508,12.508,0,0,0-5.078,6.533q-1.035,2.91-1.035,9.355v5.957H30.047v-9.14ZM4.129,117.107v-2.031a33.907,33.907,0,0,1,.82-8.887,10.131,10.131,0,0,1,4.04-5.6,12.3,12.3,0,0,1,7.1-2.012,11.682,11.682,0,0,1,6.7,1.856,9.527,9.527,0,0,1,3.8,5.1,30.955,30.955,0,0,1,.742,8.262v3.32H4.129ZM18.66,90a23.28,23.28,0,0,0,6.055-.527,7.994,7.994,0,0,0,4.395-3.32,10.462,10.462,0,0,0,1.66-5.957,8.613,8.613,0,0,0-1.758-5.459,8.46,8.46,0,0,0-4.131-3.008,21.126,21.126,0,0,0-6.221-.752H1.317v2.871H18.66a21.5,21.5,0,0,1,4.492.293,6.855,6.855,0,0,1,2.6,1.289,6.082,6.082,0,0,1,1.68,2.188,6.439,6.439,0,0,1,.605,2.734,7.524,7.524,0,0,1-.771,3.262,5.871,5.871,0,0,1-1.914,2.4,6.378,6.378,0,0,1-2.842,1,35.886,35.886,0,0,1-3.848.117H1.317V90H18.66ZM2.186,42.459A16.267,16.267,0,0,0,.594,49.725,15.252,15.252,0,0,0,4.9,60.809a14.231,14.231,0,0,0,10.615,4.424A15.145,15.145,0,0,0,25.75,61.58q5.02-4.355,5.02-11.895a16.819,16.819,0,0,0-1.494-7.178,14.481,14.481,0,0,0-4.228-5.361l-1.719,2.266a12.784,12.784,0,0,1,4.727,10.1A12.489,12.489,0,0,1,24.539,58.6a11.751,11.751,0,0,1-8.769,3.6,12.265,12.265,0,0,1-6.26-1.611,11.847,11.847,0,0,1-4.434-4.541,12.756,12.756,0,0,1-1.65-6.367,13.173,13.173,0,0,1,1.26-5.771,12.389,12.389,0,0,1,3.7-4.5L6.649,37.147A14.107,14.107,0,0,0,2.186,42.459ZM4.129,27.83H30.047V24.9H4.129V18.494H1.317V34.236H4.129V27.83ZM29.373,13.4a8.468,8.468,0,0,0,1.4-4.746,7.975,7.975,0,0,0-2.3-5.771A7.325,7.325,0,0,0,23.035.506a7.9,7.9,0,0,0-4.316,1.387,20.9,20.9,0,0,0-4.9,5.117q-2.324,3.145-2.871,3.711a6.7,6.7,0,0,1-1.914,1.426,4.424,4.424,0,0,1-1.816.391,3.452,3.452,0,0,1-2.6-1.1A3.944,3.944,0,0,1,3.563,8.592,4.763,4.763,0,0,1,4.246,6.1,11.251,11.251,0,0,1,7.078,3.338L5.3,0.994a13.034,13.034,0,0,0-3.7,3.74,7.557,7.557,0,0,0-1.006,3.8,7.29,7.29,0,0,0,.889,3.545,6.407,6.407,0,0,0,2.432,2.529,6.668,6.668,0,0,0,3.418.9,7.177,7.177,0,0,0,4.394-1.524A25.137,25.137,0,0,0,15.653,9.51a23.405,23.405,0,0,1,4.609-4.922,4.872,4.872,0,0,1,2.832-.977,4.677,4.677,0,0,1,2.4.664A4.768,4.768,0,0,1,27.3,6.209a5.706,5.706,0,0,1,.674,2.715q0,3.379-4.746,5.957L24.7,17.322A12.773,12.773,0,0,0,29.373,13.4Z"/>
</svg>
