<svg xmlns="http://www.w3.org/2000/svg" width="98.813" height="118.031" viewBox="0 0 98.813 118.031">
  <defs>
    <style>
      .cls-1 {
        fill: #354b5e;
        fill-rule: evenodd;
        opacity: 0.75;
      }
    </style>
  </defs>
  <path id="apple.svg" class="cls-1" d="M457.747,659.7a27.01,27.01,0,0,1-4.9-15.818,25.254,25.254,0,0,1,4.611-14.684,45.909,45.909,0,0,1,8.087-8.37,36.657,36.657,0,0,0-7.378-7.094,25.941,25.941,0,0,0-15.109-4.611,40.1,40.1,0,0,0-12.272,2.412q-6.952,2.414-10.143,2.412-2.414,0-9.79-2.128a47.182,47.182,0,0,0-12.555-2.128q-12.2,0-20.146,10.215-8.016,10.357-8.015,26.53,0,17.167,10.427,35.68,10.569,18.372,21.352,18.372,3.617,0,9.363-2.411a27.3,27.3,0,0,1,10.073-2.341A31.344,31.344,0,0,1,432.068,698q6.454,2.27,9.931,2.27,9.079,0,18.231-13.9a68.481,68.481,0,0,0,8.725-17.734Q462.64,666.719,457.747,659.7Zm-15.5-74.978c-0.024-.284-0.035-0.52-0.035-0.71a6.762,6.762,0,0,1-.177-0.78,6.979,6.979,0,0,0-.178-0.78q-12.486,2.908-17.734,10.5a32.354,32.354,0,0,0-5.533,18.231,39.607,39.607,0,0,0,7.378-1.206,20.115,20.115,0,0,0,7.661-5.108,29.114,29.114,0,0,0,6.6-9.789,27.056,27.056,0,0,0,2.057-9.647C442.283,585.239,442.271,585,442.247,584.718Z" transform="translate(-370.156 -582.438)"/>
</svg>
