<svg xmlns="http://www.w3.org/2000/svg" width="32" height="32" viewBox="0 0 32 32">
  <defs>
    <style>
      .cls-1 {
        fill: #374b5d;
        fill-rule: evenodd;
      }
    </style>
  </defs>
  <path id="enlarge-plus.svg" class="cls-1" d="M19.7,12.933a0.633,0.633,0,0,0-.616-0.615H14.769V8.01a0.633,0.633,0,0,0-.616-0.615H12.922a0.633,0.633,0,0,0-.616.615v4.307H7.994a0.633,0.633,0,0,0-.616.615v1.231a0.633,0.633,0,0,0,.616.615h4.312v4.307a0.633,0.633,0,0,0,.616.615h1.232a0.633,0.633,0,0,0,.616-0.615V14.778h4.312a0.633,0.633,0,0,0,.616-0.615V12.933Zm2.464,0.615a8.624,8.624,0,1,1-8.624-8.614A8.629,8.629,0,0,1,22.161,13.548Zm9.856,16a2.474,2.474,0,0,0-.712-1.731l-6.6-6.6a13.555,13.555,0,1,0-3.484,3.48l6.6,6.576a2.417,2.417,0,0,0,1.732.731A2.455,2.455,0,0,0,32.017,29.546Z"/>
</svg>
