<svg xmlns="http://www.w3.org/2000/svg" width="75" height="124.972" viewBox="0 0 75 124.972">
  <defs>
    <style>
      .cls-1 {
        fill: #354b5e;
        fill-rule: evenodd;
        opacity: 0.75;
      }
    </style>
  </defs>
  <path id="mobile.svg" class="cls-1" d="M420.14,1004.98a7.827,7.827,0,1,1,5.517-2.29A7.517,7.517,0,0,1,420.14,1004.98Zm27.2-21.237a3,3,0,0,1-2.2.927h-50a3.168,3.168,0,0,1-3.125-3.125V912.8a3.169,3.169,0,0,1,3.125-3.125h50a3.169,3.169,0,0,1,3.125,3.125v68.748A3.005,3.005,0,0,1,447.336,983.743ZM427.952,900.3H412.327a1.563,1.563,0,0,1,0-3.125h15.625a1.563,1.563,0,1,1,0,3.125h0Zm25.976-11.914a12.019,12.019,0,0,0-8.789-3.711h-50a12.672,12.672,0,0,0-12.5,12.5v100a12.671,12.671,0,0,0,12.5,12.5h50a12.672,12.672,0,0,0,12.5-12.5v-100A12.016,12.016,0,0,0,453.928,888.383Z" transform="translate(-382.625 -884.688)"/>
</svg>
