<svg xmlns="http://www.w3.org/2000/svg" width="99.844" height="86.531" viewBox="0 0 99.844 86.531">
  <defs>
    <style>
      .cls-1 {
        fill: #354b5e;
        fill-rule: evenodd;
        opacity: 0.75;
      }
    </style>
  </defs>
  <path id="pc.svg" class="cls-1" d="M462.4,357.226a1.6,1.6,0,0,1-1.17.494H378.049a1.687,1.687,0,0,1-1.664-1.664V312.8a1.687,1.687,0,0,1,1.664-1.664h83.184A1.687,1.687,0,0,1,462.9,312.8v43.255A1.6,1.6,0,0,1,462.4,357.226Zm4.7-50.3a8.013,8.013,0,0,0-5.875-2.444H378.049a8.343,8.343,0,0,0-8.318,8.319v56.565a8.341,8.341,0,0,0,8.318,8.318h28.282a10.883,10.883,0,0,1-.831,4.055,37.142,37.142,0,0,1-1.664,3.64,5.722,5.722,0,0,0-.832,2.287,3.373,3.373,0,0,0,3.327,3.327H432.95a3.373,3.373,0,0,0,3.328-3.327,5.939,5.939,0,0,0-.832-2.261,38.1,38.1,0,0,1-1.664-3.692,10.943,10.943,0,0,1-.832-4.029h28.283a8.341,8.341,0,0,0,8.318-8.318V312.8A8.013,8.013,0,0,0,467.108,306.926Z" transform="translate(-369.719 -304.469)"/>
</svg>
