<svg id="product-icon.svg" xmlns="http://www.w3.org/2000/svg" width="141.843" height="100" viewBox="0 0 141.843 100">
  <defs>
    <style>
      .cls-1 {
        fill: #46a546;
      }

      .cls-1, .cls-2 {
        fill-rule: evenodd;
      }

      .cls-2 {
        fill: #354b5e;
      }
    </style>
  </defs>
  <path class="cls-1" d="M447.932,439.128a3.229,3.229,0,0,0-2.487,1.17L430.8,457.987h-58a3.233,3.233,0,0,0-3.228,3.369l2.958,70.045a3.231,3.231,0,0,0,3.227,3.1h128.4a3.231,3.231,0,0,0,3.227-3.086l4.014-88.9a3.231,3.231,0,0,0-3.226-3.379H447.932Z" transform="translate(-369.563 -434.5)"/>
  <path class="cls-2" d="M380.536,434.5a1.076,1.076,0,0,0-1.076,1.076v19.911a1.076,1.076,0,0,0,1.076,1.076h48.638l4.863-5.873a1.076,1.076,0,0,0-.828-1.763H419.262V435.578a1.076,1.076,0,0,0-1.076-1.076h-37.65Z" transform="translate(-369.563 -434.5)"/>
</svg>
