<svg id="vumingo-logo.svg" xmlns="http://www.w3.org/2000/svg" width="201" height="65.25" viewBox="0 0 201 65.25">
  <defs>
    <style>
      .cls-1 {
        fill: #354b5e;
      }

      .cls-1, .cls-2 {
        fill-rule: evenodd;
      }

      .cls-2 {
        fill: #46a546;
      }
    </style>
  </defs>
  <path id="UMINGO" class="cls-1" d="M38.234,13.813A29.219,29.219,0,1,1,9,43.031,29.227,29.227,0,0,1,38.234,13.813ZM70.84,63.992q1.474,1.623,4.917,1.679l3.612,0.056q5.277,0,6.229-.134a9.436,9.436,0,0,0,1.862-.459,4.886,4.886,0,0,0,1.5-.818q1.721-1.4,1.721-4.6V48.656h-5.15v9.213q0,2.342-.8,2.92t-4.487.579q-4.275,0-5-.607a3.288,3.288,0,0,1-.727-2.54V48.656h-5.15v9.312Q69.366,62.37,70.84,63.992Zm29.47,1.538V53.213l6.9,12.317h4.049l7-12.275V65.53h5.149V48.656h-8.169l-6.01,10.836-5.9-10.836H95.16V65.53h5.15Zm32.1,0V48.656h-5.15V65.53h5.15Zm4.031,0h5.149V52.917l9.722,12.613h8.169V48.656h-5.15V61.213L144.6,48.656h-8.169V65.53Zm48.316-11.076a10.088,10.088,0,0,0-.332-3.083,3.889,3.889,0,0,0-1.157-1.637,4.7,4.7,0,0,0-2.088-.995,43.53,43.53,0,0,0-6.61-.282,37,37,0,0,0-8.021.529,4.373,4.373,0,0,0-2.716,2.06,9.017,9.017,0,0,0-.875,4.409,29.606,29.606,0,0,0,.423,6.681,5.257,5.257,0,0,0,1.129,1.982,4.646,4.646,0,0,0,2.194,1.263,37.181,37.181,0,0,0,6.737.346,67.036,67.036,0,0,0,7-.247,5.244,5.244,0,0,0,2.97-1.122,4.315,4.315,0,0,0,1.08-1.552q0.4-.945.4-6.349V55.851H173.337v3.443h6.406c0.009,0.151.014,0.3,0.014,0.437q0,1.623-2.384,1.623h-0.621l-2.864.014h-2.173a7,7,0,0,1-2.5-.275,1.743,1.743,0,0,1-.839-1.072A9.319,9.319,0,0,1,168.1,57.3q0-3.118.677-3.788a3.7,3.7,0,0,1,2.554-.684l3.188-.014,2.413,0.014a4.334,4.334,0,0,1,2.18.346,1.855,1.855,0,0,1,.487,1.347h5.15V54.455h0Zm19.3,11.273,0.508-.014a6.177,6.177,0,0,0,3.111-.79,4.407,4.407,0,0,0,1.757-2.166A13.538,13.538,0,0,0,210,58.095l-0.042-2.765a11.914,11.914,0,0,0-.438-3.64,5.019,5.019,0,0,0-1.086-1.721,4.484,4.484,0,0,0-2.646-1.263,33.8,33.8,0,0,0-4.211-.233l-3.7-.014H197.53a45.18,45.18,0,0,0-5.99.261,5,5,0,0,0-2.7,1.249,4.587,4.587,0,0,0-1.283,2.533,28.149,28.149,0,0,0-.339,5.143q0,4.811,1.4,6.42a4.151,4.151,0,0,0,1.911,1.256,15.793,15.793,0,0,0,4.043.367l7.379,0.042h2.1Zm-7.774-4.4a6.638,6.638,0,0,1-3.062-.451,1.861,1.861,0,0,1-.712-1.284,11.943,11.943,0,0,1-.134-1.848,16.207,16.207,0,0,1,.211-3.492,1.905,1.905,0,0,1,.819-1.044,7.523,7.523,0,0,1,3.16-.388h1.975a28.732,28.732,0,0,1,4.833.24,1.676,1.676,0,0,1,1.171.91,7.331,7.331,0,0,1,.317,2.66,15.98,15.98,0,0,1-.2,2.977,2.183,2.183,0,0,1-.734,1.3,4.738,4.738,0,0,1-2.638.466h-0.17Z" transform="translate(-9 -7)"/>
  <path class="cls-2" d="M38.81,63.049a8.338,8.338,0,0,1-6.168-2.739L14.012,39.691a5.956,5.956,0,0,1,4.426-9.947,6,6,0,0,1,4.441,1.97L36.062,46.3a3.074,3.074,0,0,0,2.256.994l0.133,0a3.014,3.014,0,0,0,2.27-1.218L67.823,9.42a5.967,5.967,0,0,1,9.613,7.072L45.5,59.681a8.272,8.272,0,0,1-6.278,3.358Q39.015,63.05,38.81,63.049Z" transform="translate(-9 -7)"/>
</svg>
